<svg width="42" height="42" viewBox="0 0 42 42" fill="none" xmlns="http://www.w3.org/2000/svg">
<path d="M21 37.6667C25.4203 37.6667 29.6595 35.9107 32.7851 32.7851C35.9107 29.6595 37.6667 25.4203 37.6667 21C37.6667 16.5797 35.9107 12.3405 32.7851 9.21488C29.6595 6.08927 25.4203 4.33332 21 4.33332C16.5797 4.33332 12.3405 6.08927 9.21491 9.21488C6.0893 12.3405 4.33335 16.5797 4.33335 21C4.33335 25.4203 6.0893 29.6595 9.21491 32.7851C12.3405 35.9107 16.5797 37.6667 21 37.6667ZM21 0.166656C23.7359 0.166656 26.445 0.705527 28.9726 1.7525C31.5002 2.79947 33.7969 4.33404 35.7314 6.2686C37.666 8.20315 39.2005 10.4998 40.2475 13.0274C41.2945 15.555 41.8334 18.2641 41.8334 21C41.8334 26.5253 39.6384 31.8244 35.7314 35.7314C31.8244 39.6384 26.5254 41.8333 21 41.8333C9.47919 41.8333 0.166687 32.4583 0.166687 21C0.166687 15.4746 2.36162 10.1756 6.26863 6.2686C10.1756 2.36159 15.4747 0.166656 21 0.166656ZM22.0417 10.5833V21.5208L31.4167 27.0833L29.8542 29.6458L18.9167 23.0833V10.5833H22.0417Z" fill="black"/>
</svg>
