<svg width="12" height="18" viewBox="0 0 12 18" fill="none" xmlns="http://www.w3.org/2000/svg">
<path d="M6.00008 8.48826C5.44755 8.48826 4.91764 8.26877 4.52694 7.87807C4.13624 7.48737 3.91675 6.95746 3.91675 6.40493C3.91675 5.85239 4.13624 5.32249 4.52694 4.93179C4.91764 4.54109 5.44755 4.32159 6.00008 4.32159C6.55262 4.32159 7.08252 4.54109 7.47322 4.93179C7.86392 5.32249 8.08342 5.85239 8.08342 6.40493C8.08342 6.67851 8.02953 6.94942 7.92483 7.20219C7.82013 7.45495 7.66668 7.68461 7.47322 7.87807C7.27977 8.07152 7.0501 8.22498 6.79734 8.32968C6.54458 8.43437 6.27367 8.48826 6.00008 8.48826ZM6.00008 0.571594C4.45299 0.571594 2.96925 1.18618 1.87529 2.28014C0.78133 3.3741 0.166748 4.85783 0.166748 6.40493C0.166748 10.7799 6.00008 17.2383 6.00008 17.2383C6.00008 17.2383 11.8334 10.7799 11.8334 6.40493C11.8334 4.85783 11.2188 3.3741 10.1249 2.28014C9.03091 1.18618 7.54718 0.571594 6.00008 0.571594Z" fill="black"/>
</svg>
