<svg width="20" height="21" viewBox="0 0 20 21" fill="none" xmlns="http://www.w3.org/2000/svg">
<g clip-path="url(#clip0)">
<path d="M0 10.9048C0 5.382 4.47715 0.904846 10 0.904846C15.5228 0.904846 20 5.382 20 10.9048C20 16.4277 15.5228 20.9048 10 20.9048C4.47715 20.9048 0 16.4277 0 10.9048Z" fill="black"/>
<path d="M9.7778 18.6826C7.00002 18.6826 4.54447 17.2604 3.11113 15.1271C3.14447 12.9049 7.55558 11.6826 9.7778 11.6826C12 11.6826 16.4111 12.9049 16.4445 15.1271C15.7099 16.2209 14.7176 17.1173 13.5551 17.7373C12.3925 18.3573 11.0954 18.682 9.7778 18.6826ZM9.7778 2.90487C10.6619 2.90487 11.5097 3.25606 12.1348 3.88118C12.7599 4.5063 13.1111 5.35415 13.1111 6.2382C13.1111 7.12226 12.7599 7.9701 12.1348 8.59522C11.5097 9.22035 10.6619 9.57154 9.7778 9.57154C8.89374 9.57154 8.0459 9.22035 7.42078 8.59522C6.79566 7.9701 6.44447 7.12226 6.44447 6.2382C6.44447 5.35415 6.79566 4.5063 7.42078 3.88118C8.0459 3.25606 8.89374 2.90487 9.7778 2.90487ZM9.7778 -0.428467C8.31867 -0.428467 6.87382 -0.141069 5.52576 0.417316C4.1777 0.975702 2.95282 1.79414 1.92106 2.8259C-0.162681 4.90964 -1.33331 7.7358 -1.33331 10.6826C-1.33331 13.6295 -0.162681 16.4557 1.92106 18.5394C2.95282 19.5712 4.1777 20.3896 5.52576 20.948C6.87382 21.5064 8.31867 21.7938 9.7778 21.7938C12.7247 21.7938 15.5508 20.6231 17.6345 18.5394C19.7183 16.4557 20.8889 13.6295 20.8889 10.6826C20.8889 4.5382 15.8889 -0.428467 9.7778 -0.428467Z" fill="white"/>
</g>
<defs>
<clipPath id="clip0">
<path d="M0 10.9048C0 5.382 4.47715 0.904846 10 0.904846C15.5228 0.904846 20 5.382 20 10.9048C20 16.4277 15.5228 20.9048 10 20.9048C4.47715 20.9048 0 16.4277 0 10.9048Z" fill="white"/>
</clipPath>
</defs>
</svg>
